<?xml version="1.0" encoding="UTF-8" standalone="no"?>
<!-- Created with Inkscape (http://www.inkscape.org/) -->

<svg
   width="210mm"
   height="297mm"
   viewBox="0 0 210 297"
   version="1.1"
   id="svg1"
   xml:space="preserve"
   inkscape:version="1.4.2 (f4327f4, 2025-05-13)"
   sodipodi:docname="flatastic.svg"
   inkscape:export-filename="flatastic.svg"
   inkscape:export-xdpi="65.019997"
   inkscape:export-ydpi="65.019997"
   xmlns:inkscape="http://www.inkscape.org/namespaces/inkscape"
   xmlns:sodipodi="http://sodipodi.sourceforge.net/DTD/sodipodi-0.dtd"
   xmlns="http://www.w3.org/2000/svg"
   xmlns:svg="http://www.w3.org/2000/svg"><sodipodi:namedview
     id="namedview1"
     pagecolor="#505050"
     bordercolor="#eeeeee"
     borderopacity="1"
     inkscape:showpageshadow="0"
     inkscape:pageopacity="0"
     inkscape:pagecheckerboard="0"
     inkscape:deskcolor="#505050"
     inkscape:document-units="mm"
     inkscape:zoom="1"
     inkscape:cx="1741.5"
     inkscape:cy="1052"
     inkscape:window-width="1536"
     inkscape:window-height="890"
     inkscape:window-x="-6"
     inkscape:window-y="-6"
     inkscape:window-maximized="1"
     inkscape:current-layer="layer1" /><defs
     id="defs1" /><g
     inkscape:label="Ebene 1"
     inkscape:groupmode="layer"
     id="layer1"><rect
       style="fill:none;fill-opacity:1;stroke-width:1.24352"
       id="rect1"
       width="100"
       height="100"
       x="437.62082"
       y="223.83749" /><g
       id="g1"
       transform="translate(4.091797e-6,-1.2971111)"><path
         id="path1-4-8"
         style="fill:#27ae60;fill-opacity:1;stroke-width:0.416666"
         d="m 487.61841,226.43172 c -0.19891,0 -0.39755,0.009 -0.5957,0.0286 -1.39794,0.13212 -2.75863,0.729 -3.82242,1.79279 l -41.15884,41.15883 c -0.30364,0.30365 -0.60009,0.64427 -0.88704,1.01481 l -8.1e-4,8e-4 h -8e-4 v 8.2e-4 c -0.28648,0.37007 -0.5631,0.77005 -0.82683,1.19222 -1.32192,2.11496 -2.31916,4.79032 -2.61475,7.11589 -0.059,0.46497 -0.0904,0.91633 -0.0904,1.34603 v 37.49997 c 0,3.43752 2.81251,6.25001 6.24999,6.25001 h 38.44563 9.05435 v 0.005 h 39.99996 c 3.22402,0 5.89773,-2.47437 6.21746,-5.61766 0.0213,-0.2081 0.0324,-0.41888 0.0326,-0.63234 v -37.49998 c 0,-0.42943 -0.0312,-0.88042 -0.0904,-1.3452 v -8.3e-4 c -0.0107,-0.084 -0.0339,-0.1732 -0.0465,-0.25797 -0.12582,-0.85492 -0.33192,-1.74734 -0.62175,-2.64241 -0.47789,-1.47605 -1.15347,-2.94647 -1.94661,-4.21549 -0.26395,-0.42252 -0.54092,-0.82271 -0.82762,-1.19304 h -8.1e-4 v -8.1e-4 c -0.28695,-0.37054 -0.58341,-0.71117 -0.88704,-1.01481 v -0.005 l -41.1587,-41.15884 c -1.06378,-1.0638 -2.42447,-1.66074 -3.82242,-1.79279 -0.1995,-0.0189 -0.40034,-0.0286 -0.60058,-0.0286 z"
         sodipodi:nodetypes="scscsccccsssscccsscssscssccccccss"
         inkscape:export-filename="flatastic.svg"
         inkscape:export-xdpi="96"
         inkscape:export-ydpi="96" /><path
         id="path1-4-2-5"
         style="display:inline;fill:#ffffff;stroke-width:0.416666"
         d="m 482.12938,251.30083 c -5.41193,2.3e-4 -8.91471,1.29045 -11.79768,4.3465 -3.13493,3.32323 -3.49829,4.62278 -3.67268,13.13883 -0.16631,8.11881 0.17868,7.44636 -3.90788,7.61068 -3.87968,0.15607 -3.77196,0.0447 -3.77196,3.91927 0,3.8334 0.0245,3.85986 3.5734,3.85986 4.46338,0 4.08773,-1.45426 4.08773,15.82437 0,13.32893 0.0107,13.65395 0.47117,14.11458 0.6409,0.6409 7.72652,0.72736 8.35207,0.10174 0.20375,-0.20374 0.39417,-0.38944 0.42317,-0.4126 0.0289,-0.0229 0.10817,-6.48263 0.17658,-14.35464 0.14913,-17.19624 -0.57891,-15.11313 5.33773,-15.27262 5.3697,-0.14473 5.04216,0.10745 5.03743,-3.87532 -0.006,-4.00727 0.13607,-3.90381 -5.29539,-3.90381 -5.51665,0 -5.12314,0.56741 -5.02848,-7.25259 0.10613,-8.76798 0.69323,-9.60229 7.00764,-9.95525 3.86367,-0.21597 3.83028,-0.17969 3.73942,-4.07713 -0.0892,-3.82362 -0.0738,-3.81123 -4.73227,-3.81105 z m 19.07551,10.84147 c -0.0923,-0.005 -0.19062,-0.003 -0.2946,0.003 -0.23765,0.0142 -0.50627,0.0561 -0.81054,0.11307 -2.5781,0.48277 -6.00091,1.44747 -6.39241,1.80177 -0.60244,0.54514 -0.66363,41.13369 -0.066,43.6694 1.56771,6.65078 7.56865,9.45507 17.16877,8.02407 2.45924,-0.36656 2.5057,-0.44115 2.5057,-4.00064 0,-4.09554 0.035,-4.05811 -3.59537,-3.8558 -6.64295,0.37019 -7.00932,-0.29973 -7.0109,-12.83202 -10e-4,-11.03487 -0.49197,-10.17746 5.80647,-10.17903 4.66995,-0.001 4.62665,0.028 4.75829,-3.2487 0.17722,-4.41252 0.0312,-4.53205 -5.52409,-4.53205 -5.43908,0 -5.04153,0.55118 -5.04311,-7.00276 -0.001,-6.38539 -0.11702,-7.88044 -1.50229,-7.9598 z"
         sodipodi:nodetypes="csssssscsccscssssccsscsssssscsscss" /></g></g></svg>
